<?xml version="1.0" encoding="UTF-8" standalone="no"?>
<!DOCTYPE svg PUBLIC "-//W3C//DTD SVG 1.1//EN"
 "http://www.w3.org/Graphics/SVG/1.1/DTD/svg11.dtd">
<!-- Generated by graphviz version 2.40.1 (20161225.0304)
 -->
<!-- Title: models_diagram Pages: 1 -->
<svg width="770pt" height="1147pt"
 viewBox="0.00 0.00 770.26 1147.00" xmlns="http://www.w3.org/2000/svg" xmlns:xlink="http://www.w3.org/1999/xlink">
<g id="graph0" class="graph" transform="scale(1 1) rotate(0) translate(4 1143)">
<title>models_diagram</title>
<polygon fill="transparent" stroke="transparent" points="-4,4 -4,-1143 766.2581,-1143 766.2581,4 -4,4"/>
<!-- ApplicationRecord -->
<g id="node1" class="node">
<title>ApplicationRecord</title>
<ellipse fill="none" stroke="#000000" cx="77.3958" cy="-1053.5" rx="77.2916" ry="18"/>
<text text-anchor="middle" x="77.3958" y="-1049.3" font-family="Times,serif" font-size="14.00" fill="#000000">ApplicationRecord</text>
</g>
<!-- EvacuationPoint -->
<g id="node2" class="node">
<title>EvacuationPoint</title>
<path fill="none" stroke="#000000" d="M184.5334,-968.5C184.5334,-968.5 408.2581,-968.5 408.2581,-968.5 414.2581,-968.5 420.2581,-974.5 420.2581,-980.5 420.2581,-980.5 420.2581,-1126.5 420.2581,-1126.5 420.2581,-1132.5 414.2581,-1138.5 408.2581,-1138.5 408.2581,-1138.5 184.5334,-1138.5 184.5334,-1138.5 178.5334,-1138.5 172.5334,-1132.5 172.5334,-1126.5 172.5334,-1126.5 172.5334,-980.5 172.5334,-980.5 172.5334,-974.5 178.5334,-968.5 184.5334,-968.5"/>
<text text-anchor="middle" x="296.3958" y="-1123.3" font-family="Times,serif" font-size="14.00" fill="#000000">EvacuationPoint</text>
<polyline fill="none" stroke="#000000" points="172.5334,-1116.5 420.2581,-1116.5 "/>
<text text-anchor="start" x="180.5334" y="-1101.3" font-family="Times,serif" font-size="14.00" fill="#000000">name :character varying</text>
<text text-anchor="start" x="180.5334" y="-1087.3" font-family="Times,serif" font-size="14.00" fill="#000000">user_id :integer</text>
<text text-anchor="start" x="180.5334" y="-1073.3" font-family="Times,serif" font-size="14.00" fill="#000000">address :character varying</text>
<text text-anchor="start" x="180.5334" y="-1059.3" font-family="Times,serif" font-size="14.00" fill="#000000">latitude :double precision</text>
<text text-anchor="start" x="180.5334" y="-1045.3" font-family="Times,serif" font-size="14.00" fill="#000000">longitude :double precision</text>
<text text-anchor="start" x="180.5334" y="-1031.3" font-family="Times,serif" font-size="14.00" fill="#000000">number_of_evacuees :integer</text>
<text text-anchor="start" x="180.5334" y="-1017.3" font-family="Times,serif" font-size="14.00" fill="#000000">max_evacuees :integer</text>
<text text-anchor="start" x="180.5334" y="-1003.3" font-family="Times,serif" font-size="14.00" fill="#000000">created_at :timestamp without time zone</text>
<text text-anchor="start" x="180.5334" y="-989.3" font-family="Times,serif" font-size="14.00" fill="#000000">updated_at :timestamp without time zone</text>
<text text-anchor="start" x="180.5334" y="-975.3" font-family="Times,serif" font-size="14.00" fill="#000000">id :integer</text>
</g>
<!-- User -->
<g id="node8" class="node">
<title>User</title>
<path fill="none" stroke="#000000" d="M281.761,-537.5C281.761,-537.5 577.0305,-537.5 577.0305,-537.5 583.0305,-537.5 589.0305,-543.5 589.0305,-549.5 589.0305,-549.5 589.0305,-919.5 589.0305,-919.5 589.0305,-925.5 583.0305,-931.5 577.0305,-931.5 577.0305,-931.5 281.761,-931.5 281.761,-931.5 275.761,-931.5 269.761,-925.5 269.761,-919.5 269.761,-919.5 269.761,-549.5 269.761,-549.5 269.761,-543.5 275.761,-537.5 281.761,-537.5"/>
<text text-anchor="middle" x="429.3958" y="-916.3" font-family="Times,serif" font-size="14.00" fill="#000000">User</text>
<polyline fill="none" stroke="#000000" points="269.761,-909.5 589.0305,-909.5 "/>
<text text-anchor="start" x="277.761" y="-894.3" font-family="Times,serif" font-size="14.00" fill="#000000">token_expiry :timestamp without time zone</text>
<text text-anchor="start" x="277.761" y="-880.3" font-family="Times,serif" font-size="14.00" fill="#000000">email :character varying</text>
<text text-anchor="start" x="277.761" y="-866.3" font-family="Times,serif" font-size="14.00" fill="#000000">encrypted_password :character varying</text>
<text text-anchor="start" x="277.761" y="-852.3" font-family="Times,serif" font-size="14.00" fill="#000000">reset_password_token :character varying</text>
<text text-anchor="start" x="277.761" y="-838.3" font-family="Times,serif" font-size="14.00" fill="#000000">reset_password_sent_at :timestamp without time zone</text>
<text text-anchor="start" x="277.761" y="-824.3" font-family="Times,serif" font-size="14.00" fill="#000000">remember_created_at :timestamp without time zone</text>
<text text-anchor="start" x="277.761" y="-810.3" font-family="Times,serif" font-size="14.00" fill="#000000">sign_in_count :integer</text>
<text text-anchor="start" x="277.761" y="-796.3" font-family="Times,serif" font-size="14.00" fill="#000000">current_sign_in_at :timestamp without time zone</text>
<text text-anchor="start" x="277.761" y="-782.3" font-family="Times,serif" font-size="14.00" fill="#000000">last_sign_in_at :timestamp without time zone</text>
<text text-anchor="start" x="277.761" y="-768.3" font-family="Times,serif" font-size="14.00" fill="#000000">current_sign_in_ip :inet</text>
<text text-anchor="start" x="277.761" y="-754.3" font-family="Times,serif" font-size="14.00" fill="#000000">last_sign_in_ip :inet</text>
<text text-anchor="start" x="277.761" y="-740.3" font-family="Times,serif" font-size="14.00" fill="#000000">created_at :timestamp without time zone</text>
<text text-anchor="start" x="277.761" y="-726.3" font-family="Times,serif" font-size="14.00" fill="#000000">updated_at :timestamp without time zone</text>
<text text-anchor="start" x="277.761" y="-712.3" font-family="Times,serif" font-size="14.00" fill="#000000">first_name :character varying</text>
<text text-anchor="start" x="277.761" y="-698.3" font-family="Times,serif" font-size="14.00" fill="#000000">last_name :character varying</text>
<text text-anchor="start" x="277.761" y="-684.3" font-family="Times,serif" font-size="14.00" fill="#000000">address :character varying</text>
<text text-anchor="start" x="277.761" y="-670.3" font-family="Times,serif" font-size="14.00" fill="#000000">phone_number :character varying</text>
<text text-anchor="start" x="277.761" y="-656.3" font-family="Times,serif" font-size="14.00" fill="#000000">organization_id :integer</text>
<text text-anchor="start" x="277.761" y="-642.3" font-family="Times,serif" font-size="14.00" fill="#000000">latitude :double precision</text>
<text text-anchor="start" x="277.761" y="-628.3" font-family="Times,serif" font-size="14.00" fill="#000000">longitude :double precision</text>
<text text-anchor="start" x="277.761" y="-614.3" font-family="Times,serif" font-size="14.00" fill="#000000">evacuation_point_id :integer</text>
<text text-anchor="start" x="277.761" y="-600.3" font-family="Times,serif" font-size="14.00" fill="#000000">provider :character varying</text>
<text text-anchor="start" x="277.761" y="-586.3" font-family="Times,serif" font-size="14.00" fill="#000000">uid :character varying</text>
<text text-anchor="start" x="277.761" y="-572.3" font-family="Times,serif" font-size="14.00" fill="#000000">facebook_picture_url :character varying</text>
<text text-anchor="start" x="277.761" y="-558.3" font-family="Times,serif" font-size="14.00" fill="#000000">token :character varying</text>
<text text-anchor="start" x="277.761" y="-544.3" font-family="Times,serif" font-size="14.00" fill="#000000">id :integer</text>
</g>
<!-- EvacuationPoint&#45;&gt;User -->
<g id="edge1" class="edge">
<title>EvacuationPoint&#45;&gt;User</title>
<path fill="none" stroke="#492e50" d="M334.9919,-960.9273C337.7051,-954.4197 340.494,-947.7305 343.3352,-940.9159"/>
<ellipse fill="none" stroke="#492e50" cx="333.4019" cy="-964.7409" rx="4" ry="4"/>
<polygon fill="#492e50" stroke="#492e50" points="343.3915,-940.7807 351.3932,-933.2825 345.3156,-936.1657 347.2398,-931.5508 347.2398,-931.5508 347.2398,-931.5508 345.3156,-936.1657 343.0863,-929.8191 343.3915,-940.7807 343.3915,-940.7807"/>
</g>
<!-- Item -->
<g id="node3" class="node">
<title>Item</title>
<path fill="none" stroke="#000000" d="M450.5334,-179.5C450.5334,-179.5 674.2581,-179.5 674.2581,-179.5 680.2581,-179.5 686.2581,-185.5 686.2581,-191.5 686.2581,-191.5 686.2581,-253.5 686.2581,-253.5 686.2581,-259.5 680.2581,-265.5 674.2581,-265.5 674.2581,-265.5 450.5334,-265.5 450.5334,-265.5 444.5334,-265.5 438.5334,-259.5 438.5334,-253.5 438.5334,-253.5 438.5334,-191.5 438.5334,-191.5 438.5334,-185.5 444.5334,-179.5 450.5334,-179.5"/>
<text text-anchor="middle" x="562.3958" y="-250.3" font-family="Times,serif" font-size="14.00" fill="#000000">Item</text>
<polyline fill="none" stroke="#000000" points="438.5334,-243.5 686.2581,-243.5 "/>
<text text-anchor="start" x="446.5334" y="-228.3" font-family="Times,serif" font-size="14.00" fill="#000000">id :integer</text>
<text text-anchor="start" x="446.5334" y="-214.3" font-family="Times,serif" font-size="14.00" fill="#000000">name :character varying</text>
<text text-anchor="start" x="446.5334" y="-200.3" font-family="Times,serif" font-size="14.00" fill="#000000">created_at :timestamp without time zone</text>
<text text-anchor="start" x="446.5334" y="-186.3" font-family="Times,serif" font-size="14.00" fill="#000000">updated_at :timestamp without time zone</text>
</g>
<!-- ItemsRequest -->
<g id="node4" class="node">
<title>ItemsRequest</title>
<path fill="none" stroke="#000000" d="M526.5334,-.5C526.5334,-.5 750.2581,-.5 750.2581,-.5 756.2581,-.5 762.2581,-6.5 762.2581,-12.5 762.2581,-12.5 762.2581,-116.5 762.2581,-116.5 762.2581,-122.5 756.2581,-128.5 750.2581,-128.5 750.2581,-128.5 526.5334,-128.5 526.5334,-128.5 520.5334,-128.5 514.5334,-122.5 514.5334,-116.5 514.5334,-116.5 514.5334,-12.5 514.5334,-12.5 514.5334,-6.5 520.5334,-.5 526.5334,-.5"/>
<text text-anchor="middle" x="638.3958" y="-113.3" font-family="Times,serif" font-size="14.00" fill="#000000">ItemsRequest</text>
<polyline fill="none" stroke="#000000" points="514.5334,-106.5 762.2581,-106.5 "/>
<text text-anchor="start" x="522.5334" y="-91.3" font-family="Times,serif" font-size="14.00" fill="#000000">quantity :character varying</text>
<text text-anchor="start" x="522.5334" y="-77.3" font-family="Times,serif" font-size="14.00" fill="#000000">item_id :integer</text>
<text text-anchor="start" x="522.5334" y="-63.3" font-family="Times,serif" font-size="14.00" fill="#000000">request_id :integer</text>
<text text-anchor="start" x="522.5334" y="-49.3" font-family="Times,serif" font-size="14.00" fill="#000000">id :integer</text>
<text text-anchor="start" x="522.5334" y="-35.3" font-family="Times,serif" font-size="14.00" fill="#000000">status :character varying</text>
<text text-anchor="start" x="522.5334" y="-21.3" font-family="Times,serif" font-size="14.00" fill="#000000">created_at :timestamp without time zone</text>
<text text-anchor="start" x="522.5334" y="-7.3" font-family="Times,serif" font-size="14.00" fill="#000000">updated_at :timestamp without time zone</text>
</g>
<!-- Item&#45;&gt;ItemsRequest -->
<g id="edge2" class="edge">
<title>Item&#45;&gt;ItemsRequest</title>
<path fill="none" stroke="#261ce5" d="M586.7634,-171.841C591.9783,-160.9995 597.588,-149.3371 603.1204,-137.8357"/>
<ellipse fill="none" stroke="#261ce5" cx="584.897" cy="-175.7211" rx="4" ry="4"/>
<polygon fill="#261ce5" stroke="#261ce5" points="603.1968,-137.6767 611.5868,-130.6156 605.3642,-133.1708 607.5316,-128.665 607.5316,-128.665 607.5316,-128.665 605.3642,-133.1708 603.4763,-126.7143 603.1968,-137.6767 603.1968,-137.6767"/>
</g>
<!-- Message -->
<g id="node5" class="node">
<title>Message</title>
<path fill="none" stroke="#000000" d="M184.5334,-165.5C184.5334,-165.5 408.2581,-165.5 408.2581,-165.5 414.2581,-165.5 420.2581,-171.5 420.2581,-177.5 420.2581,-177.5 420.2581,-267.5 420.2581,-267.5 420.2581,-273.5 414.2581,-279.5 408.2581,-279.5 408.2581,-279.5 184.5334,-279.5 184.5334,-279.5 178.5334,-279.5 172.5334,-273.5 172.5334,-267.5 172.5334,-267.5 172.5334,-177.5 172.5334,-177.5 172.5334,-171.5 178.5334,-165.5 184.5334,-165.5"/>
<text text-anchor="middle" x="296.3958" y="-264.3" font-family="Times,serif" font-size="14.00" fill="#000000">Message</text>
<polyline fill="none" stroke="#000000" points="172.5334,-257.5 420.2581,-257.5 "/>
<text text-anchor="start" x="180.5334" y="-242.3" font-family="Times,serif" font-size="14.00" fill="#000000">id :integer</text>
<text text-anchor="start" x="180.5334" y="-228.3" font-family="Times,serif" font-size="14.00" fill="#000000">user_id :integer</text>
<text text-anchor="start" x="180.5334" y="-214.3" font-family="Times,serif" font-size="14.00" fill="#000000">request_id :integer</text>
<text text-anchor="start" x="180.5334" y="-200.3" font-family="Times,serif" font-size="14.00" fill="#000000">text :text</text>
<text text-anchor="start" x="180.5334" y="-186.3" font-family="Times,serif" font-size="14.00" fill="#000000">created_at :timestamp without time zone</text>
<text text-anchor="start" x="180.5334" y="-172.3" font-family="Times,serif" font-size="14.00" fill="#000000">updated_at :timestamp without time zone</text>
</g>
<!-- Organization -->
<g id="node6" class="node">
<title>Organization</title>
<path fill="none" stroke="#000000" d="M450.5334,-1010.5C450.5334,-1010.5 674.2581,-1010.5 674.2581,-1010.5 680.2581,-1010.5 686.2581,-1016.5 686.2581,-1022.5 686.2581,-1022.5 686.2581,-1084.5 686.2581,-1084.5 686.2581,-1090.5 680.2581,-1096.5 674.2581,-1096.5 674.2581,-1096.5 450.5334,-1096.5 450.5334,-1096.5 444.5334,-1096.5 438.5334,-1090.5 438.5334,-1084.5 438.5334,-1084.5 438.5334,-1022.5 438.5334,-1022.5 438.5334,-1016.5 444.5334,-1010.5 450.5334,-1010.5"/>
<text text-anchor="middle" x="562.3958" y="-1081.3" font-family="Times,serif" font-size="14.00" fill="#000000">Organization</text>
<polyline fill="none" stroke="#000000" points="438.5334,-1074.5 686.2581,-1074.5 "/>
<text text-anchor="start" x="446.5334" y="-1059.3" font-family="Times,serif" font-size="14.00" fill="#000000">id :integer</text>
<text text-anchor="start" x="446.5334" y="-1045.3" font-family="Times,serif" font-size="14.00" fill="#000000">name :character varying</text>
<text text-anchor="start" x="446.5334" y="-1031.3" font-family="Times,serif" font-size="14.00" fill="#000000">created_at :timestamp without time zone</text>
<text text-anchor="start" x="446.5334" y="-1017.3" font-family="Times,serif" font-size="14.00" fill="#000000">updated_at :timestamp without time zone</text>
</g>
<!-- Organization&#45;&gt;User -->
<g id="edge3" class="edge">
<title>Organization&#45;&gt;User</title>
<path fill="none" stroke="#ce9a9d" d="M541.3134,-1002.9342C533.8838,-985.1142 525.0059,-963.8205 515.5449,-941.1285"/>
<ellipse fill="none" stroke="#ce9a9d" cx="542.9195" cy="-1006.7863" rx="4" ry="4"/>
<polygon fill="#ce9a9d" stroke="#ce9a9d" points="515.4517,-940.9048 515.7569,-929.9432 513.5276,-936.2899 511.6035,-931.6749 511.6035,-931.6749 511.6035,-931.6749 513.5276,-936.2899 507.45,-933.4066 515.4517,-940.9048 515.4517,-940.9048"/>
</g>
<!-- Request -->
<g id="node7" class="node">
<title>Request</title>
<path fill="none" stroke="#000000" d="M421.5334,-316.5C421.5334,-316.5 645.2581,-316.5 645.2581,-316.5 651.2581,-316.5 657.2581,-322.5 657.2581,-328.5 657.2581,-328.5 657.2581,-488.5 657.2581,-488.5 657.2581,-494.5 651.2581,-500.5 645.2581,-500.5 645.2581,-500.5 421.5334,-500.5 421.5334,-500.5 415.5334,-500.5 409.5334,-494.5 409.5334,-488.5 409.5334,-488.5 409.5334,-328.5 409.5334,-328.5 409.5334,-322.5 415.5334,-316.5 421.5334,-316.5"/>
<text text-anchor="middle" x="533.3958" y="-485.3" font-family="Times,serif" font-size="14.00" fill="#000000">Request</text>
<polyline fill="none" stroke="#000000" points="409.5334,-478.5 657.2581,-478.5 "/>
<text text-anchor="start" x="417.5334" y="-463.3" font-family="Times,serif" font-size="14.00" fill="#000000">text :text</text>
<text text-anchor="start" x="417.5334" y="-449.3" font-family="Times,serif" font-size="14.00" fill="#000000">user_id :integer</text>
<text text-anchor="start" x="417.5334" y="-435.3" font-family="Times,serif" font-size="14.00" fill="#000000">category :character varying</text>
<text text-anchor="start" x="417.5334" y="-421.3" font-family="Times,serif" font-size="14.00" fill="#000000">address :character varying</text>
<text text-anchor="start" x="417.5334" y="-407.3" font-family="Times,serif" font-size="14.00" fill="#000000">latitude :double precision</text>
<text text-anchor="start" x="417.5334" y="-393.3" font-family="Times,serif" font-size="14.00" fill="#000000">longitude :double precision</text>
<text text-anchor="start" x="417.5334" y="-379.3" font-family="Times,serif" font-size="14.00" fill="#000000">status :character varying</text>
<text text-anchor="start" x="417.5334" y="-365.3" font-family="Times,serif" font-size="14.00" fill="#000000">priority :character varying</text>
<text text-anchor="start" x="417.5334" y="-351.3" font-family="Times,serif" font-size="14.00" fill="#000000">created_at :timestamp without time zone</text>
<text text-anchor="start" x="417.5334" y="-337.3" font-family="Times,serif" font-size="14.00" fill="#000000">updated_at :timestamp without time zone</text>
<text text-anchor="start" x="417.5334" y="-323.3" font-family="Times,serif" font-size="14.00" fill="#000000">id :integer</text>
</g>
<!-- Request&#45;&gt;Item -->
<g id="edge6" class="edge">
<title>Request&#45;&gt;Item</title>
<path fill="none" stroke="#803669" d="M549.3205,-306.3617C550.9622,-295.8326 552.5792,-285.4613 554.0864,-275.7946"/>
<polygon fill="#803669" stroke="#803669" points="549.3089,-306.4367 543.322,-315.6241 548.5386,-311.3771 547.7683,-316.3174 547.7683,-316.3174 547.7683,-316.3174 548.5386,-311.3771 552.2146,-317.0106 549.3089,-306.4367 549.3089,-306.4367"/>
<polygon fill="#803669" stroke="#803669" points="554.1341,-275.4883 560.121,-266.3009 554.9044,-270.548 555.6747,-265.6076 555.6747,-265.6076 555.6747,-265.6076 554.9044,-270.548 551.2284,-264.9144 554.1341,-275.4883 554.1341,-275.4883"/>
</g>
<!-- Request&#45;&gt;ItemsRequest -->
<g id="edge4" class="edge">
<title>Request&#45;&gt;ItemsRequest</title>
<path fill="none" stroke="#e7a011" d="M663.2041,-325.129C676.127,-311.6118 687.4013,-296.5454 695.3958,-280 717.6321,-233.9795 708.4348,-214.4199 695.3958,-165 692.9841,-155.8593 689.5285,-146.678 685.4952,-137.7809"/>
<ellipse fill="none" stroke="#e7a011" cx="660.3821" cy="-327.9829" rx="4" ry="4"/>
<polygon fill="#e7a011" stroke="#e7a011" points="685.4284,-137.6415 685.1595,-126.679 683.2654,-133.1336 681.1024,-128.6256 681.1024,-128.6256 681.1024,-128.6256 683.2654,-133.1336 677.0452,-130.5723 685.4284,-137.6415 685.4284,-137.6415"/>
</g>
<!-- Request&#45;&gt;Message -->
<g id="edge5" class="edge">
<title>Request&#45;&gt;Message</title>
<path fill="none" stroke="#97a513" d="M409.585,-311.3321C398.5749,-302.6912 387.626,-294.0985 377.1197,-285.8529"/>
<ellipse fill="none" stroke="#97a513" cx="412.7906" cy="-313.8478" rx="4" ry="4"/>
<polygon fill="#97a513" stroke="#97a513" points="377.0446,-285.794 371.9562,-276.0802 373.1113,-282.7071 369.1779,-279.6202 369.1779,-279.6202 369.1779,-279.6202 373.1113,-282.7071 366.3997,-283.1602 377.0446,-285.794 377.0446,-285.794"/>
</g>
<!-- User&#45;&gt;Message -->
<g id="edge8" class="edge">
<title>User&#45;&gt;Message</title>
<path fill="none" stroke="#6e69cf" d="M376.1222,-529.4167C353.9275,-443.9756 329.6844,-350.6489 313.8294,-289.6131"/>
<ellipse fill="none" stroke="#6e69cf" cx="377.159" cy="-533.4083" rx="4" ry="4"/>
<polygon fill="#6e69cf" stroke="#6e69cf" points="313.7756,-289.4054 315.6167,-278.5952 312.5184,-284.566 311.2613,-279.7266 311.2613,-279.7266 311.2613,-279.7266 312.5184,-284.566 306.9058,-280.8581 313.7756,-289.4054 313.7756,-289.4054"/>
</g>
<!-- User&#45;&gt;Request -->
<g id="edge7" class="edge">
<title>User&#45;&gt;Request</title>
<path fill="none" stroke="#a36ecf" d="M494.7304,-529.701C496.8117,-523.177 498.8624,-516.7489 500.8679,-510.4623"/>
<ellipse fill="none" stroke="#a36ecf" cx="493.5079" cy="-533.533" rx="4" ry="4"/>
<polygon fill="#a36ecf" stroke="#a36ecf" points="500.9408,-510.2334 508.2673,-502.0742 502.4605,-505.47 503.9802,-500.7065 503.9802,-500.7065 503.9802,-500.7065 502.4605,-505.47 499.6931,-499.3388 500.9408,-510.2334 500.9408,-510.2334"/>
</g>
</g>
</svg>
