<?xml version="1.0" encoding="UTF-8" standalone="no"?>
<!DOCTYPE svg PUBLIC "-//W3C//DTD SVG 1.1//EN"
 "http://www.w3.org/Graphics/SVG/1.1/DTD/svg11.dtd">
<!-- Generated by graphviz version 2.40.1 (20161225.0304)
 -->
<!-- Title: controllers_diagram Pages: 1 -->
<svg width="629pt" height="533pt"
 viewBox="0.00 0.00 628.86 533.00" xmlns="http://www.w3.org/2000/svg" xmlns:xlink="http://www.w3.org/1999/xlink">
<g id="graph0" class="graph" transform="scale(1 1) rotate(0) translate(4 529)">
<title>controllers_diagram</title>
<polygon fill="transparent" stroke="transparent" points="-4,4 -4,-529 624.8555,-529 624.8555,4 -4,4"/>
<!-- _diagram_info -->
<g id="node1" class="node">
<title>_diagram_info</title>
<text text-anchor="start" x="62" y="-112.6" font-family="Times,serif" font-size="13.00" fill="#000000">Controllers diagram</text>
<text text-anchor="start" x="62" y="-99.6" font-family="Times,serif" font-size="13.00" fill="#000000">Date: Jul 27 2017 &#45; 10:36</text>
<text text-anchor="start" x="62" y="-86.6" font-family="Times,serif" font-size="13.00" fill="#000000">Migration version: 20170726065528</text>
<text text-anchor="start" x="62" y="-73.6" font-family="Times,serif" font-size="13.00" fill="#000000">Generated by RailRoady 1.5.3</text>
<text text-anchor="start" x="62" y="-60.6" font-family="Times,serif" font-size="13.00" fill="#000000">http://railroady.prestonlee.com</text>
</g>
<!-- ApplicationController -->
<g id="node2" class="node">
<title>ApplicationController</title>
<path fill="none" stroke="#000000" d="M138,-378.5C138,-378.5 311.9316,-378.5 311.9316,-378.5 317.9316,-378.5 323.9316,-384.5 323.9316,-390.5 323.9316,-390.5 323.9316,-512.5 323.9316,-512.5 323.9316,-518.5 317.9316,-524.5 311.9316,-524.5 311.9316,-524.5 138,-524.5 138,-524.5 132,-524.5 126,-518.5 126,-512.5 126,-512.5 126,-390.5 126,-390.5 126,-384.5 132,-378.5 138,-378.5"/>
<text text-anchor="middle" x="224.9658" y="-509.3" font-family="Times,serif" font-size="14.00" fill="#000000">ApplicationController</text>
<polyline fill="none" stroke="#000000" points="126,-502.5 323.9316,-502.5 "/>
<text text-anchor="start" x="134" y="-487.3" font-family="Times,serif" font-size="14.00" fill="#000000">configure_permitted_parameters</text>
<polyline fill="none" stroke="#000000" points="126,-480.5 323.9316,-480.5 "/>
<polyline fill="none" stroke="#000000" points="126,-456.5 323.9316,-456.5 "/>
<text text-anchor="start" x="134" y="-441.3" font-family="Times,serif" font-size="14.00" fill="#000000">_layout</text>
<text text-anchor="start" x="134" y="-427.3" font-family="Times,serif" font-size="14.00" fill="#000000">after_sign_in_path_for</text>
<text text-anchor="start" x="134" y="-413.3" font-family="Times,serif" font-size="14.00" fill="#000000">after_sign_out_path_for</text>
<text text-anchor="start" x="134" y="-399.3" font-family="Times,serif" font-size="14.00" fill="#000000">store_current_location</text>
<text text-anchor="start" x="134" y="-385.3" font-family="Times,serif" font-size="14.00" fill="#000000">store_location</text>
</g>
<!-- ItemsRequestsController -->
<g id="node3" class="node">
<title>ItemsRequestsController</title>
<path fill="none" stroke="#000000" d="M156,-162.5C156,-162.5 320.6348,-162.5 320.6348,-162.5 326.6348,-162.5 332.6348,-168.5 332.6348,-174.5 332.6348,-174.5 332.6348,-324.5 332.6348,-324.5 332.6348,-330.5 326.6348,-336.5 320.6348,-336.5 320.6348,-336.5 156,-336.5 156,-336.5 150,-336.5 144,-330.5 144,-324.5 144,-324.5 144,-174.5 144,-174.5 144,-168.5 150,-162.5 156,-162.5"/>
<text text-anchor="middle" x="238.3174" y="-321.3" font-family="Times,serif" font-size="14.00" fill="#000000">ItemsRequestsController</text>
<polyline fill="none" stroke="#000000" points="144,-314.5 332.6348,-314.5 "/>
<text text-anchor="start" x="152" y="-299.3" font-family="Times,serif" font-size="14.00" fill="#000000">index</text>
<text text-anchor="start" x="152" y="-285.3" font-family="Times,serif" font-size="14.00" fill="#000000">delete</text>
<text text-anchor="start" x="152" y="-271.3" font-family="Times,serif" font-size="14.00" fill="#000000">edit</text>
<text text-anchor="start" x="152" y="-257.3" font-family="Times,serif" font-size="14.00" fill="#000000">create</text>
<text text-anchor="start" x="152" y="-243.3" font-family="Times,serif" font-size="14.00" fill="#000000">new</text>
<text text-anchor="start" x="152" y="-229.3" font-family="Times,serif" font-size="14.00" fill="#000000">show</text>
<text text-anchor="start" x="152" y="-215.3" font-family="Times,serif" font-size="14.00" fill="#000000">strong_params_items_requests</text>
<polyline fill="none" stroke="#000000" points="144,-208.5 332.6348,-208.5 "/>
<polyline fill="none" stroke="#000000" points="144,-184.5 332.6348,-184.5 "/>
<text text-anchor="start" x="152" y="-169.3" font-family="Times,serif" font-size="14.00" fill="#000000">_layout</text>
</g>
<!-- MessagesController -->
<g id="node4" class="node">
<title>MessagesController</title>
<path fill="none" stroke="#000000" d="M480,-.5C480,-.5 608.8555,-.5 608.8555,-.5 614.8555,-.5 620.8555,-6.5 620.8555,-12.5 620.8555,-12.5 620.8555,-92.5 620.8555,-92.5 620.8555,-98.5 614.8555,-104.5 608.8555,-104.5 608.8555,-104.5 480,-104.5 480,-104.5 474,-104.5 468,-98.5 468,-92.5 468,-92.5 468,-12.5 468,-12.5 468,-6.5 474,-.5 480,-.5"/>
<text text-anchor="middle" x="544.4277" y="-89.3" font-family="Times,serif" font-size="14.00" fill="#000000">MessagesController</text>
<polyline fill="none" stroke="#000000" points="468,-82.5 620.8555,-82.5 "/>
<text text-anchor="start" x="476" y="-67.3" font-family="Times,serif" font-size="14.00" fill="#000000">create</text>
<polyline fill="none" stroke="#000000" points="468,-60.5 620.8555,-60.5 "/>
<polyline fill="none" stroke="#000000" points="468,-36.5 620.8555,-36.5 "/>
<text text-anchor="start" x="476" y="-21.3" font-family="Times,serif" font-size="14.00" fill="#000000">_layout</text>
<text text-anchor="start" x="476" y="-7.3" font-family="Times,serif" font-size="14.00" fill="#000000">strong_params_message</text>
</g>
<!-- PagesController -->
<g id="node5" class="node">
<title>PagesController</title>
<path fill="none" stroke="#000000" d="M12,-252.5C12,-252.5 94.207,-252.5 94.207,-252.5 100.207,-252.5 106.207,-258.5 106.207,-264.5 106.207,-264.5 106.207,-330.5 106.207,-330.5 106.207,-336.5 100.207,-342.5 94.207,-342.5 94.207,-342.5 12,-342.5 12,-342.5 6,-342.5 0,-336.5 0,-330.5 0,-330.5 0,-264.5 0,-264.5 0,-258.5 6,-252.5 12,-252.5"/>
<text text-anchor="middle" x="53.1035" y="-327.3" font-family="Times,serif" font-size="14.00" fill="#000000">PagesController</text>
<polyline fill="none" stroke="#000000" points="0,-320.5 106.207,-320.5 "/>
<text text-anchor="start" x="8" y="-305.3" font-family="Times,serif" font-size="14.00" fill="#000000">home</text>
<polyline fill="none" stroke="#000000" points="0,-298.5 106.207,-298.5 "/>
<polyline fill="none" stroke="#000000" points="0,-274.5 106.207,-274.5 "/>
<text text-anchor="start" x="8" y="-259.3" font-family="Times,serif" font-size="14.00" fill="#000000">_layout</text>
</g>
<!-- RegistrationsController -->
<g id="node6" class="node">
<title>RegistrationsController</title>
<path fill="none" stroke="#000000" d="M300,-.5C300,-.5 423.4277,-.5 423.4277,-.5 429.4277,-.5 435.4277,-6.5 435.4277,-12.5 435.4277,-12.5 435.4277,-92.5 435.4277,-92.5 435.4277,-98.5 429.4277,-104.5 423.4277,-104.5 423.4277,-104.5 300,-104.5 300,-104.5 294,-104.5 288,-98.5 288,-92.5 288,-92.5 288,-12.5 288,-12.5 288,-6.5 294,-.5 300,-.5"/>
<text text-anchor="middle" x="361.7139" y="-89.3" font-family="Times,serif" font-size="14.00" fill="#000000">RegistrationsController</text>
<polyline fill="none" stroke="#000000" points="288,-82.5 435.4277,-82.5 "/>
<polyline fill="none" stroke="#000000" points="288,-58.5 435.4277,-58.5 "/>
<text text-anchor="start" x="296" y="-43.3" font-family="Times,serif" font-size="14.00" fill="#000000">after_update_path_for</text>
<text text-anchor="start" x="296" y="-29.3" font-family="Times,serif" font-size="14.00" fill="#000000">update_resource</text>
<polyline fill="none" stroke="#000000" points="288,-22.5 435.4277,-22.5 "/>
<text text-anchor="start" x="296" y="-7.3" font-family="Times,serif" font-size="14.00" fill="#000000">_layout</text>
</g>
<!-- RequestsController -->
<g id="node7" class="node">
<title>RequestsController</title>
<path fill="none" stroke="#000000" d="M372,-144.5C372,-144.5 493.8555,-144.5 493.8555,-144.5 499.8555,-144.5 505.8555,-150.5 505.8555,-156.5 505.8555,-156.5 505.8555,-348.5 505.8555,-348.5 505.8555,-354.5 499.8555,-360.5 493.8555,-360.5 493.8555,-360.5 372,-360.5 372,-360.5 366,-360.5 360,-354.5 360,-348.5 360,-348.5 360,-156.5 360,-156.5 360,-150.5 366,-144.5 372,-144.5"/>
<text text-anchor="middle" x="432.9277" y="-345.3" font-family="Times,serif" font-size="14.00" fill="#000000">RequestsController</text>
<polyline fill="none" stroke="#000000" points="360,-338.5 505.8555,-338.5 "/>
<text text-anchor="start" x="368" y="-323.3" font-family="Times,serif" font-size="14.00" fill="#000000">update</text>
<text text-anchor="start" x="368" y="-309.3" font-family="Times,serif" font-size="14.00" fill="#000000">destroy</text>
<text text-anchor="start" x="368" y="-295.3" font-family="Times,serif" font-size="14.00" fill="#000000">edit</text>
<text text-anchor="start" x="368" y="-281.3" font-family="Times,serif" font-size="14.00" fill="#000000">geolocate</text>
<text text-anchor="start" x="368" y="-267.3" font-family="Times,serif" font-size="14.00" fill="#000000">index</text>
<text text-anchor="start" x="368" y="-253.3" font-family="Times,serif" font-size="14.00" fill="#000000">list</text>
<text text-anchor="start" x="368" y="-239.3" font-family="Times,serif" font-size="14.00" fill="#000000">new</text>
<text text-anchor="start" x="368" y="-225.3" font-family="Times,serif" font-size="14.00" fill="#000000">show</text>
<text text-anchor="start" x="368" y="-211.3" font-family="Times,serif" font-size="14.00" fill="#000000">create</text>
<polyline fill="none" stroke="#000000" points="360,-204.5 505.8555,-204.5 "/>
<polyline fill="none" stroke="#000000" points="360,-180.5 505.8555,-180.5 "/>
<text text-anchor="start" x="368" y="-165.3" font-family="Times,serif" font-size="14.00" fill="#000000">_layout</text>
<text text-anchor="start" x="368" y="-151.3" font-family="Times,serif" font-size="14.00" fill="#000000">strong_params_request</text>
</g>
<!-- Users::OmniauthCallbacksController -->
<g id="node8" class="node">
<title>Users::OmniauthCallbacksController</title>
<path fill="none" stroke="#000000" d="M408,-396.5C408,-396.5 608.4072,-396.5 608.4072,-396.5 614.4072,-396.5 620.4072,-402.5 620.4072,-408.5 620.4072,-408.5 620.4072,-488.5 620.4072,-488.5 620.4072,-494.5 614.4072,-500.5 608.4072,-500.5 608.4072,-500.5 408,-500.5 408,-500.5 402,-500.5 396,-494.5 396,-488.5 396,-488.5 396,-408.5 396,-408.5 396,-402.5 402,-396.5 408,-396.5"/>
<text text-anchor="middle" x="508.2036" y="-485.3" font-family="Times,serif" font-size="14.00" fill="#000000">Users::OmniauthCallbacksController</text>
<polyline fill="none" stroke="#000000" points="396,-478.5 620.4072,-478.5 "/>
<text text-anchor="start" x="404" y="-463.3" font-family="Times,serif" font-size="14.00" fill="#000000">facebook</text>
<text text-anchor="start" x="404" y="-449.3" font-family="Times,serif" font-size="14.00" fill="#000000">twitter</text>
<polyline fill="none" stroke="#000000" points="396,-442.5 620.4072,-442.5 "/>
<polyline fill="none" stroke="#000000" points="396,-418.5 620.4072,-418.5 "/>
<text text-anchor="start" x="404" y="-403.3" font-family="Times,serif" font-size="14.00" fill="#000000">_layout</text>
</g>
</g>
</svg>
