<?xml version="1.0" encoding="UTF-8" standalone="no"?>
<!DOCTYPE svg PUBLIC "-//W3C//DTD SVG 1.1//EN"
 "http://www.w3.org/Graphics/SVG/1.1/DTD/svg11.dtd">
<!-- Generated by graphviz version 2.40.1 (20161225.0304)
 -->
<!-- Title: models_diagram Pages: 1 -->
<svg width="996pt" height="1147pt"
 viewBox="0.00 0.00 995.55 1147.00" xmlns="http://www.w3.org/2000/svg" xmlns:xlink="http://www.w3.org/1999/xlink">
<g id="graph0" class="graph" transform="scale(1 1) rotate(0) translate(4 1143)">
<title>models_diagram</title>
<polygon fill="transparent" stroke="transparent" points="-4,4 -4,-1143 991.55,-1143 991.55,4 -4,4"/>
<!-- _diagram_info -->
<g id="node1" class="node">
<title>_diagram_info</title>
<text text-anchor="start" x="8" y="-1075.6" font-family="Times,serif" font-size="13.00" fill="#000000">Models diagram</text>
<text text-anchor="start" x="8" y="-1062.6" font-family="Times,serif" font-size="13.00" fill="#000000">Date: Jul 27 2017 &#45; 10:36</text>
<text text-anchor="start" x="8" y="-1049.6" font-family="Times,serif" font-size="13.00" fill="#000000">Migration version: 20170726065528</text>
<text text-anchor="start" x="8" y="-1036.6" font-family="Times,serif" font-size="13.00" fill="#000000">Generated by RailRoady 1.5.3</text>
<text text-anchor="start" x="8" y="-1023.6" font-family="Times,serif" font-size="13.00" fill="#000000">http://railroady.prestonlee.com</text>
</g>
<!-- ApplicationRecord -->
<g id="node2" class="node">
<title>ApplicationRecord</title>
<ellipse fill="none" stroke="#000000" cx="302.6877" cy="-1053.5" rx="77.2916" ry="18"/>
<text text-anchor="middle" x="302.6877" y="-1049.3" font-family="Times,serif" font-size="14.00" fill="#000000">ApplicationRecord</text>
</g>
<!-- EvacuationPoint -->
<g id="node3" class="node">
<title>EvacuationPoint</title>
<path fill="none" stroke="#000000" d="M409.8254,-968.5C409.8254,-968.5 633.55,-968.5 633.55,-968.5 639.55,-968.5 645.55,-974.5 645.55,-980.5 645.55,-980.5 645.55,-1126.5 645.55,-1126.5 645.55,-1132.5 639.55,-1138.5 633.55,-1138.5 633.55,-1138.5 409.8254,-1138.5 409.8254,-1138.5 403.8254,-1138.5 397.8254,-1132.5 397.8254,-1126.5 397.8254,-1126.5 397.8254,-980.5 397.8254,-980.5 397.8254,-974.5 403.8254,-968.5 409.8254,-968.5"/>
<text text-anchor="middle" x="521.6877" y="-1123.3" font-family="Times,serif" font-size="14.00" fill="#000000">EvacuationPoint</text>
<polyline fill="none" stroke="#000000" points="397.8254,-1116.5 645.55,-1116.5 "/>
<text text-anchor="start" x="405.8254" y="-1101.3" font-family="Times,serif" font-size="14.00" fill="#000000">name :character varying</text>
<text text-anchor="start" x="405.8254" y="-1087.3" font-family="Times,serif" font-size="14.00" fill="#000000">user_id :integer</text>
<text text-anchor="start" x="405.8254" y="-1073.3" font-family="Times,serif" font-size="14.00" fill="#000000">address :character varying</text>
<text text-anchor="start" x="405.8254" y="-1059.3" font-family="Times,serif" font-size="14.00" fill="#000000">latitude :double precision</text>
<text text-anchor="start" x="405.8254" y="-1045.3" font-family="Times,serif" font-size="14.00" fill="#000000">longitude :double precision</text>
<text text-anchor="start" x="405.8254" y="-1031.3" font-family="Times,serif" font-size="14.00" fill="#000000">number_of_evacuees :integer</text>
<text text-anchor="start" x="405.8254" y="-1017.3" font-family="Times,serif" font-size="14.00" fill="#000000">max_evacuees :integer</text>
<text text-anchor="start" x="405.8254" y="-1003.3" font-family="Times,serif" font-size="14.00" fill="#000000">created_at :timestamp without time zone</text>
<text text-anchor="start" x="405.8254" y="-989.3" font-family="Times,serif" font-size="14.00" fill="#000000">updated_at :timestamp without time zone</text>
<text text-anchor="start" x="405.8254" y="-975.3" font-family="Times,serif" font-size="14.00" fill="#000000">id :integer</text>
</g>
<!-- User -->
<g id="node9" class="node">
<title>User</title>
<path fill="none" stroke="#000000" d="M507.053,-537.5C507.053,-537.5 802.3225,-537.5 802.3225,-537.5 808.3225,-537.5 814.3225,-543.5 814.3225,-549.5 814.3225,-549.5 814.3225,-919.5 814.3225,-919.5 814.3225,-925.5 808.3225,-931.5 802.3225,-931.5 802.3225,-931.5 507.053,-931.5 507.053,-931.5 501.053,-931.5 495.053,-925.5 495.053,-919.5 495.053,-919.5 495.053,-549.5 495.053,-549.5 495.053,-543.5 501.053,-537.5 507.053,-537.5"/>
<text text-anchor="middle" x="654.6877" y="-916.3" font-family="Times,serif" font-size="14.00" fill="#000000">User</text>
<polyline fill="none" stroke="#000000" points="495.053,-909.5 814.3225,-909.5 "/>
<text text-anchor="start" x="503.053" y="-894.3" font-family="Times,serif" font-size="14.00" fill="#000000">token_expiry :timestamp without time zone</text>
<text text-anchor="start" x="503.053" y="-880.3" font-family="Times,serif" font-size="14.00" fill="#000000">email :character varying</text>
<text text-anchor="start" x="503.053" y="-866.3" font-family="Times,serif" font-size="14.00" fill="#000000">encrypted_password :character varying</text>
<text text-anchor="start" x="503.053" y="-852.3" font-family="Times,serif" font-size="14.00" fill="#000000">reset_password_token :character varying</text>
<text text-anchor="start" x="503.053" y="-838.3" font-family="Times,serif" font-size="14.00" fill="#000000">reset_password_sent_at :timestamp without time zone</text>
<text text-anchor="start" x="503.053" y="-824.3" font-family="Times,serif" font-size="14.00" fill="#000000">remember_created_at :timestamp without time zone</text>
<text text-anchor="start" x="503.053" y="-810.3" font-family="Times,serif" font-size="14.00" fill="#000000">sign_in_count :integer</text>
<text text-anchor="start" x="503.053" y="-796.3" font-family="Times,serif" font-size="14.00" fill="#000000">current_sign_in_at :timestamp without time zone</text>
<text text-anchor="start" x="503.053" y="-782.3" font-family="Times,serif" font-size="14.00" fill="#000000">last_sign_in_at :timestamp without time zone</text>
<text text-anchor="start" x="503.053" y="-768.3" font-family="Times,serif" font-size="14.00" fill="#000000">current_sign_in_ip :inet</text>
<text text-anchor="start" x="503.053" y="-754.3" font-family="Times,serif" font-size="14.00" fill="#000000">last_sign_in_ip :inet</text>
<text text-anchor="start" x="503.053" y="-740.3" font-family="Times,serif" font-size="14.00" fill="#000000">created_at :timestamp without time zone</text>
<text text-anchor="start" x="503.053" y="-726.3" font-family="Times,serif" font-size="14.00" fill="#000000">updated_at :timestamp without time zone</text>
<text text-anchor="start" x="503.053" y="-712.3" font-family="Times,serif" font-size="14.00" fill="#000000">first_name :character varying</text>
<text text-anchor="start" x="503.053" y="-698.3" font-family="Times,serif" font-size="14.00" fill="#000000">last_name :character varying</text>
<text text-anchor="start" x="503.053" y="-684.3" font-family="Times,serif" font-size="14.00" fill="#000000">address :character varying</text>
<text text-anchor="start" x="503.053" y="-670.3" font-family="Times,serif" font-size="14.00" fill="#000000">phone_number :character varying</text>
<text text-anchor="start" x="503.053" y="-656.3" font-family="Times,serif" font-size="14.00" fill="#000000">organization_id :integer</text>
<text text-anchor="start" x="503.053" y="-642.3" font-family="Times,serif" font-size="14.00" fill="#000000">latitude :double precision</text>
<text text-anchor="start" x="503.053" y="-628.3" font-family="Times,serif" font-size="14.00" fill="#000000">longitude :double precision</text>
<text text-anchor="start" x="503.053" y="-614.3" font-family="Times,serif" font-size="14.00" fill="#000000">evacuation_point_id :integer</text>
<text text-anchor="start" x="503.053" y="-600.3" font-family="Times,serif" font-size="14.00" fill="#000000">provider :character varying</text>
<text text-anchor="start" x="503.053" y="-586.3" font-family="Times,serif" font-size="14.00" fill="#000000">uid :character varying</text>
<text text-anchor="start" x="503.053" y="-572.3" font-family="Times,serif" font-size="14.00" fill="#000000">facebook_picture_url :character varying</text>
<text text-anchor="start" x="503.053" y="-558.3" font-family="Times,serif" font-size="14.00" fill="#000000">token :character varying</text>
<text text-anchor="start" x="503.053" y="-544.3" font-family="Times,serif" font-size="14.00" fill="#000000">id :integer</text>
</g>
<!-- EvacuationPoint&#45;&gt;User -->
<g id="edge1" class="edge">
<title>EvacuationPoint&#45;&gt;User</title>
<path fill="none" stroke="#b42bd6" d="M560.2839,-960.9273C562.9971,-954.4197 565.786,-947.7305 568.6272,-940.9159"/>
<ellipse fill="none" stroke="#b42bd6" cx="558.6939" cy="-964.7409" rx="4" ry="4"/>
<polygon fill="#b42bd6" stroke="#b42bd6" points="568.6835,-940.7807 576.6852,-933.2825 570.6076,-936.1657 572.5318,-931.5508 572.5318,-931.5508 572.5318,-931.5508 570.6076,-936.1657 568.3783,-929.8191 568.6835,-940.7807 568.6835,-940.7807"/>
</g>
<!-- Item -->
<g id="node4" class="node">
<title>Item</title>
<path fill="none" stroke="#000000" d="M675.8254,-179.5C675.8254,-179.5 899.55,-179.5 899.55,-179.5 905.55,-179.5 911.55,-185.5 911.55,-191.5 911.55,-191.5 911.55,-253.5 911.55,-253.5 911.55,-259.5 905.55,-265.5 899.55,-265.5 899.55,-265.5 675.8254,-265.5 675.8254,-265.5 669.8254,-265.5 663.8254,-259.5 663.8254,-253.5 663.8254,-253.5 663.8254,-191.5 663.8254,-191.5 663.8254,-185.5 669.8254,-179.5 675.8254,-179.5"/>
<text text-anchor="middle" x="787.6877" y="-250.3" font-family="Times,serif" font-size="14.00" fill="#000000">Item</text>
<polyline fill="none" stroke="#000000" points="663.8254,-243.5 911.55,-243.5 "/>
<text text-anchor="start" x="671.8254" y="-228.3" font-family="Times,serif" font-size="14.00" fill="#000000">id :integer</text>
<text text-anchor="start" x="671.8254" y="-214.3" font-family="Times,serif" font-size="14.00" fill="#000000">name :character varying</text>
<text text-anchor="start" x="671.8254" y="-200.3" font-family="Times,serif" font-size="14.00" fill="#000000">created_at :timestamp without time zone</text>
<text text-anchor="start" x="671.8254" y="-186.3" font-family="Times,serif" font-size="14.00" fill="#000000">updated_at :timestamp without time zone</text>
</g>
<!-- ItemsRequest -->
<g id="node5" class="node">
<title>ItemsRequest</title>
<path fill="none" stroke="#000000" d="M751.8254,-.5C751.8254,-.5 975.55,-.5 975.55,-.5 981.55,-.5 987.55,-6.5 987.55,-12.5 987.55,-12.5 987.55,-116.5 987.55,-116.5 987.55,-122.5 981.55,-128.5 975.55,-128.5 975.55,-128.5 751.8254,-128.5 751.8254,-128.5 745.8254,-128.5 739.8254,-122.5 739.8254,-116.5 739.8254,-116.5 739.8254,-12.5 739.8254,-12.5 739.8254,-6.5 745.8254,-.5 751.8254,-.5"/>
<text text-anchor="middle" x="863.6877" y="-113.3" font-family="Times,serif" font-size="14.00" fill="#000000">ItemsRequest</text>
<polyline fill="none" stroke="#000000" points="739.8254,-106.5 987.55,-106.5 "/>
<text text-anchor="start" x="747.8254" y="-91.3" font-family="Times,serif" font-size="14.00" fill="#000000">quantity :character varying</text>
<text text-anchor="start" x="747.8254" y="-77.3" font-family="Times,serif" font-size="14.00" fill="#000000">item_id :integer</text>
<text text-anchor="start" x="747.8254" y="-63.3" font-family="Times,serif" font-size="14.00" fill="#000000">request_id :integer</text>
<text text-anchor="start" x="747.8254" y="-49.3" font-family="Times,serif" font-size="14.00" fill="#000000">id :integer</text>
<text text-anchor="start" x="747.8254" y="-35.3" font-family="Times,serif" font-size="14.00" fill="#000000">status :character varying</text>
<text text-anchor="start" x="747.8254" y="-21.3" font-family="Times,serif" font-size="14.00" fill="#000000">created_at :timestamp without time zone</text>
<text text-anchor="start" x="747.8254" y="-7.3" font-family="Times,serif" font-size="14.00" fill="#000000">updated_at :timestamp without time zone</text>
</g>
<!-- Item&#45;&gt;ItemsRequest -->
<g id="edge2" class="edge">
<title>Item&#45;&gt;ItemsRequest</title>
<path fill="none" stroke="#4df18d" d="M812.0554,-171.841C817.2703,-160.9995 822.88,-149.3371 828.4124,-137.8357"/>
<ellipse fill="none" stroke="#4df18d" cx="810.189" cy="-175.7211" rx="4" ry="4"/>
<polygon fill="#4df18d" stroke="#4df18d" points="828.4888,-137.6767 836.8788,-130.6156 830.6562,-133.1708 832.8236,-128.665 832.8236,-128.665 832.8236,-128.665 830.6562,-133.1708 828.7683,-126.7143 828.4888,-137.6767 828.4888,-137.6767"/>
</g>
<!-- Message -->
<g id="node6" class="node">
<title>Message</title>
<path fill="none" stroke="#000000" d="M409.8254,-165.5C409.8254,-165.5 633.55,-165.5 633.55,-165.5 639.55,-165.5 645.55,-171.5 645.55,-177.5 645.55,-177.5 645.55,-267.5 645.55,-267.5 645.55,-273.5 639.55,-279.5 633.55,-279.5 633.55,-279.5 409.8254,-279.5 409.8254,-279.5 403.8254,-279.5 397.8254,-273.5 397.8254,-267.5 397.8254,-267.5 397.8254,-177.5 397.8254,-177.5 397.8254,-171.5 403.8254,-165.5 409.8254,-165.5"/>
<text text-anchor="middle" x="521.6877" y="-264.3" font-family="Times,serif" font-size="14.00" fill="#000000">Message</text>
<polyline fill="none" stroke="#000000" points="397.8254,-257.5 645.55,-257.5 "/>
<text text-anchor="start" x="405.8254" y="-242.3" font-family="Times,serif" font-size="14.00" fill="#000000">id :integer</text>
<text text-anchor="start" x="405.8254" y="-228.3" font-family="Times,serif" font-size="14.00" fill="#000000">user_id :integer</text>
<text text-anchor="start" x="405.8254" y="-214.3" font-family="Times,serif" font-size="14.00" fill="#000000">request_id :integer</text>
<text text-anchor="start" x="405.8254" y="-200.3" font-family="Times,serif" font-size="14.00" fill="#000000">text :text</text>
<text text-anchor="start" x="405.8254" y="-186.3" font-family="Times,serif" font-size="14.00" fill="#000000">created_at :timestamp without time zone</text>
<text text-anchor="start" x="405.8254" y="-172.3" font-family="Times,serif" font-size="14.00" fill="#000000">updated_at :timestamp without time zone</text>
</g>
<!-- Organization -->
<g id="node7" class="node">
<title>Organization</title>
<path fill="none" stroke="#000000" d="M675.8254,-1010.5C675.8254,-1010.5 899.55,-1010.5 899.55,-1010.5 905.55,-1010.5 911.55,-1016.5 911.55,-1022.5 911.55,-1022.5 911.55,-1084.5 911.55,-1084.5 911.55,-1090.5 905.55,-1096.5 899.55,-1096.5 899.55,-1096.5 675.8254,-1096.5 675.8254,-1096.5 669.8254,-1096.5 663.8254,-1090.5 663.8254,-1084.5 663.8254,-1084.5 663.8254,-1022.5 663.8254,-1022.5 663.8254,-1016.5 669.8254,-1010.5 675.8254,-1010.5"/>
<text text-anchor="middle" x="787.6877" y="-1081.3" font-family="Times,serif" font-size="14.00" fill="#000000">Organization</text>
<polyline fill="none" stroke="#000000" points="663.8254,-1074.5 911.55,-1074.5 "/>
<text text-anchor="start" x="671.8254" y="-1059.3" font-family="Times,serif" font-size="14.00" fill="#000000">id :integer</text>
<text text-anchor="start" x="671.8254" y="-1045.3" font-family="Times,serif" font-size="14.00" fill="#000000">name :character varying</text>
<text text-anchor="start" x="671.8254" y="-1031.3" font-family="Times,serif" font-size="14.00" fill="#000000">created_at :timestamp without time zone</text>
<text text-anchor="start" x="671.8254" y="-1017.3" font-family="Times,serif" font-size="14.00" fill="#000000">updated_at :timestamp without time zone</text>
</g>
<!-- Organization&#45;&gt;User -->
<g id="edge3" class="edge">
<title>Organization&#45;&gt;User</title>
<path fill="none" stroke="#0fa467" d="M766.6054,-1002.9342C759.1758,-985.1142 750.2978,-963.8205 740.8369,-941.1285"/>
<ellipse fill="none" stroke="#0fa467" cx="768.2115" cy="-1006.7863" rx="4" ry="4"/>
<polygon fill="#0fa467" stroke="#0fa467" points="740.7437,-940.9048 741.0489,-929.9432 738.8196,-936.2899 736.8955,-931.6749 736.8955,-931.6749 736.8955,-931.6749 738.8196,-936.2899 732.742,-933.4066 740.7437,-940.9048 740.7437,-940.9048"/>
</g>
<!-- Request -->
<g id="node8" class="node">
<title>Request</title>
<path fill="none" stroke="#000000" d="M646.8254,-316.5C646.8254,-316.5 870.55,-316.5 870.55,-316.5 876.55,-316.5 882.55,-322.5 882.55,-328.5 882.55,-328.5 882.55,-488.5 882.55,-488.5 882.55,-494.5 876.55,-500.5 870.55,-500.5 870.55,-500.5 646.8254,-500.5 646.8254,-500.5 640.8254,-500.5 634.8254,-494.5 634.8254,-488.5 634.8254,-488.5 634.8254,-328.5 634.8254,-328.5 634.8254,-322.5 640.8254,-316.5 646.8254,-316.5"/>
<text text-anchor="middle" x="758.6877" y="-485.3" font-family="Times,serif" font-size="14.00" fill="#000000">Request</text>
<polyline fill="none" stroke="#000000" points="634.8254,-478.5 882.55,-478.5 "/>
<text text-anchor="start" x="642.8254" y="-463.3" font-family="Times,serif" font-size="14.00" fill="#000000">text :text</text>
<text text-anchor="start" x="642.8254" y="-449.3" font-family="Times,serif" font-size="14.00" fill="#000000">user_id :integer</text>
<text text-anchor="start" x="642.8254" y="-435.3" font-family="Times,serif" font-size="14.00" fill="#000000">category :character varying</text>
<text text-anchor="start" x="642.8254" y="-421.3" font-family="Times,serif" font-size="14.00" fill="#000000">address :character varying</text>
<text text-anchor="start" x="642.8254" y="-407.3" font-family="Times,serif" font-size="14.00" fill="#000000">latitude :double precision</text>
<text text-anchor="start" x="642.8254" y="-393.3" font-family="Times,serif" font-size="14.00" fill="#000000">longitude :double precision</text>
<text text-anchor="start" x="642.8254" y="-379.3" font-family="Times,serif" font-size="14.00" fill="#000000">status :character varying</text>
<text text-anchor="start" x="642.8254" y="-365.3" font-family="Times,serif" font-size="14.00" fill="#000000">priority :character varying</text>
<text text-anchor="start" x="642.8254" y="-351.3" font-family="Times,serif" font-size="14.00" fill="#000000">created_at :timestamp without time zone</text>
<text text-anchor="start" x="642.8254" y="-337.3" font-family="Times,serif" font-size="14.00" fill="#000000">updated_at :timestamp without time zone</text>
<text text-anchor="start" x="642.8254" y="-323.3" font-family="Times,serif" font-size="14.00" fill="#000000">id :integer</text>
</g>
<!-- Request&#45;&gt;Item -->
<g id="edge6" class="edge">
<title>Request&#45;&gt;Item</title>
<path fill="none" stroke="#6c396a" d="M774.6125,-306.3617C776.2542,-295.8326 777.8712,-285.4613 779.3784,-275.7946"/>
<polygon fill="#6c396a" stroke="#6c396a" points="774.6009,-306.4367 768.614,-315.6241 773.8306,-311.3771 773.0603,-316.3174 773.0603,-316.3174 773.0603,-316.3174 773.8306,-311.3771 777.5066,-317.0106 774.6009,-306.4367 774.6009,-306.4367"/>
<polygon fill="#6c396a" stroke="#6c396a" points="779.4261,-275.4883 785.4129,-266.3009 780.1964,-270.548 780.9667,-265.6076 780.9667,-265.6076 780.9667,-265.6076 780.1964,-270.548 776.5204,-264.9144 779.4261,-275.4883 779.4261,-275.4883"/>
</g>
<!-- Request&#45;&gt;ItemsRequest -->
<g id="edge4" class="edge">
<title>Request&#45;&gt;ItemsRequest</title>
<path fill="none" stroke="#a8201f" d="M888.4961,-325.129C901.419,-311.6118 912.6933,-296.5454 920.6877,-280 942.9241,-233.9795 933.7268,-214.4199 920.6877,-165 918.276,-155.8593 914.8205,-146.678 910.7872,-137.7809"/>
<ellipse fill="none" stroke="#a8201f" cx="885.674" cy="-327.9829" rx="4" ry="4"/>
<polygon fill="#a8201f" stroke="#a8201f" points="910.7203,-137.6415 910.4515,-126.679 908.5574,-133.1336 906.3944,-128.6256 906.3944,-128.6256 906.3944,-128.6256 908.5574,-133.1336 902.3372,-130.5723 910.7203,-137.6415 910.7203,-137.6415"/>
</g>
<!-- Request&#45;&gt;Message -->
<g id="edge5" class="edge">
<title>Request&#45;&gt;Message</title>
<path fill="none" stroke="#5414af" d="M634.877,-311.3321C623.8669,-302.6912 612.918,-294.0985 602.4117,-285.8529"/>
<ellipse fill="none" stroke="#5414af" cx="638.0826" cy="-313.8478" rx="4" ry="4"/>
<polygon fill="#5414af" stroke="#5414af" points="602.3366,-285.794 597.2482,-276.0802 598.4033,-282.7071 594.4699,-279.6202 594.4699,-279.6202 594.4699,-279.6202 598.4033,-282.7071 591.6917,-283.1602 602.3366,-285.794 602.3366,-285.794"/>
</g>
<!-- User&#45;&gt;Message -->
<g id="edge8" class="edge">
<title>User&#45;&gt;Message</title>
<path fill="none" stroke="#028f38" d="M601.4142,-529.4167C579.2195,-443.9756 554.9764,-350.6489 539.1214,-289.6131"/>
<ellipse fill="none" stroke="#028f38" cx="602.451" cy="-533.4083" rx="4" ry="4"/>
<polygon fill="#028f38" stroke="#028f38" points="539.0675,-289.4054 540.9087,-278.5952 537.8104,-284.566 536.5533,-279.7266 536.5533,-279.7266 536.5533,-279.7266 537.8104,-284.566 532.1978,-280.8581 539.0675,-289.4054 539.0675,-289.4054"/>
</g>
<!-- User&#45;&gt;Request -->
<g id="edge7" class="edge">
<title>User&#45;&gt;Request</title>
<path fill="none" stroke="#039713" d="M720.0224,-529.701C722.1037,-523.177 724.1544,-516.7489 726.1599,-510.4623"/>
<ellipse fill="none" stroke="#039713" cx="718.7999" cy="-533.533" rx="4" ry="4"/>
<polygon fill="#039713" stroke="#039713" points="726.2328,-510.2334 733.5593,-502.0742 727.7525,-505.47 729.2722,-500.7065 729.2722,-500.7065 729.2722,-500.7065 727.7525,-505.47 724.985,-499.3388 726.2328,-510.2334 726.2328,-510.2334"/>
</g>
</g>
</svg>
