<?xml version="1.0" encoding="UTF-8" standalone="no"?>
<!DOCTYPE svg PUBLIC "-//W3C//DTD SVG 1.1//EN"
 "http://www.w3.org/Graphics/SVG/1.1/DTD/svg11.dtd">
<!-- Generated by graphviz version 2.40.1 (20161225.0304)
 -->
<!-- Title: models_diagram Pages: 1 -->
<svg width="675pt" height="369pt"
 viewBox="0.00 0.00 674.93 369.00" xmlns="http://www.w3.org/2000/svg" xmlns:xlink="http://www.w3.org/1999/xlink">
<g id="graph0" class="graph" transform="scale(1 1) rotate(0) translate(4 365)">
<title>models_diagram</title>
<polygon fill="transparent" stroke="transparent" points="-4,4 -4,-365 670.9327,-365 670.9327,4 -4,4"/>
<!-- _diagram_info -->
<g id="node1" class="node">
<title>_diagram_info</title>
<text text-anchor="start" x="8" y="-346.6" font-family="Times,serif" font-size="13.00" fill="#000000">Models diagram</text>
<text text-anchor="start" x="8" y="-333.6" font-family="Times,serif" font-size="13.00" fill="#000000">Date: Jul 27 2017 &#45; 10:36</text>
<text text-anchor="start" x="8" y="-320.6" font-family="Times,serif" font-size="13.00" fill="#000000">Migration version: 20170726065528</text>
<text text-anchor="start" x="8" y="-307.6" font-family="Times,serif" font-size="13.00" fill="#000000">Generated by RailRoady 1.5.3</text>
<text text-anchor="start" x="8" y="-294.6" font-family="Times,serif" font-size="13.00" fill="#000000">http://railroady.prestonlee.com</text>
</g>
<!-- ApplicationRecord -->
<g id="node2" class="node">
<title>ApplicationRecord</title>
<ellipse fill="none" stroke="#000000" cx="302.6877" cy="-324.5" rx="77.2916" ry="18"/>
<text text-anchor="middle" x="302.6877" y="-320.3" font-family="Times,serif" font-size="14.00" fill="#000000">ApplicationRecord</text>
</g>
<!-- EvacuationPoint -->
<g id="node3" class="node">
<title>EvacuationPoint</title>
<ellipse fill="none" stroke="#000000" cx="466.6877" cy="-324.5" rx="68.6219" ry="18"/>
<text text-anchor="middle" x="466.6877" y="-320.3" font-family="Times,serif" font-size="14.00" fill="#000000">EvacuationPoint</text>
</g>
<!-- User -->
<g id="node9" class="node">
<title>User</title>
<ellipse fill="none" stroke="#000000" cx="537.6877" cy="-234" rx="27" ry="18"/>
<text text-anchor="middle" x="537.6877" y="-229.8" font-family="Times,serif" font-size="14.00" fill="#000000">User</text>
</g>
<!-- EvacuationPoint&#45;&gt;User -->
<g id="edge1" class="edge">
<title>EvacuationPoint&#45;&gt;User</title>
<path fill="none" stroke="#bcc879" d="M485.8254,-300.1063C496.0585,-287.0626 508.6135,-271.0594 518.8073,-258.0659"/>
<ellipse fill="none" stroke="#bcc879" cx="483.1841" cy="-303.473" rx="4" ry="4"/>
<polygon fill="#bcc879" stroke="#bcc879" points="518.9445,-257.891 528.6575,-252.8009 522.0308,-253.9571 525.117,-250.0233 525.117,-250.0233 525.117,-250.0233 522.0308,-253.9571 521.5765,-247.2456 518.9445,-257.891 518.9445,-257.891"/>
</g>
<!-- Item -->
<g id="node4" class="node">
<title>Item</title>
<ellipse fill="none" stroke="#000000" cx="581.6877" cy="-90" rx="27" ry="18"/>
<text text-anchor="middle" x="581.6877" y="-85.8" font-family="Times,serif" font-size="14.00" fill="#000000">Item</text>
</g>
<!-- ItemsRequest -->
<g id="node5" class="node">
<title>ItemsRequest</title>
<ellipse fill="none" stroke="#000000" cx="608.6877" cy="-18" rx="58.491" ry="18"/>
<text text-anchor="middle" x="608.6877" y="-13.8" font-family="Times,serif" font-size="14.00" fill="#000000">ItemsRequest</text>
</g>
<!-- Item&#45;&gt;ItemsRequest -->
<g id="edge2" class="edge">
<title>Item&#45;&gt;ItemsRequest</title>
<path fill="none" stroke="#dc6fde" d="M591.2089,-64.6102C593.5251,-58.4338 596.0128,-51.7999 598.3642,-45.5295"/>
<ellipse fill="none" stroke="#dc6fde" cx="589.7664" cy="-68.4569" rx="4" ry="4"/>
<polygon fill="#dc6fde" stroke="#dc6fde" points="598.3915,-45.4564 606.1163,-37.6732 600.1472,-40.7748 601.9028,-36.0931 601.9028,-36.0931 601.9028,-36.0931 600.1472,-40.7748 597.6893,-34.513 598.3915,-45.4564 598.3915,-45.4564"/>
</g>
<!-- Message -->
<g id="node6" class="node">
<title>Message</title>
<ellipse fill="none" stroke="#000000" cx="495.6877" cy="-90" rx="41.1007" ry="18"/>
<text text-anchor="middle" x="495.6877" y="-85.8" font-family="Times,serif" font-size="14.00" fill="#000000">Message</text>
</g>
<!-- Organization -->
<g id="node7" class="node">
<title>Organization</title>
<ellipse fill="none" stroke="#000000" cx="609.6877" cy="-324.5" rx="56.2326" ry="18"/>
<text text-anchor="middle" x="609.6877" y="-320.3" font-family="Times,serif" font-size="14.00" fill="#000000">Organization</text>
</g>
<!-- Organization&#45;&gt;User -->
<g id="edge3" class="edge">
<title>Organization&#45;&gt;User</title>
<path fill="none" stroke="#e2add6" d="M590.6293,-300.5446C580.2491,-287.4972 567.4346,-271.3902 557.0131,-258.2909"/>
<ellipse fill="none" stroke="#e2add6" cx="593.3151" cy="-303.9205" rx="4" ry="4"/>
<polygon fill="#e2add6" stroke="#e2add6" points="556.7858,-258.0051 554.0814,-247.3779 553.6728,-254.0924 550.5599,-250.1796 550.5599,-250.1796 550.5599,-250.1796 553.6728,-254.0924 547.0384,-252.9812 556.7858,-258.0051 556.7858,-258.0051"/>
</g>
<!-- Request -->
<g id="node8" class="node">
<title>Request</title>
<ellipse fill="none" stroke="#000000" cx="576.6877" cy="-162" rx="38.6955" ry="18"/>
<text text-anchor="middle" x="576.6877" y="-157.8" font-family="Times,serif" font-size="14.00" fill="#000000">Request</text>
</g>
<!-- Request&#45;&gt;Item -->
<g id="edge6" class="edge">
<title>Request&#45;&gt;Item</title>
<path fill="none" stroke="#514166" d="M578.6423,-133.8545C578.9946,-128.781 579.3621,-123.4887 579.715,-118.4078"/>
<polygon fill="#514166" stroke="#514166" points="578.6423,-133.8554 573.4603,-143.5196 578.2959,-138.8434 577.9495,-143.8314 577.9495,-143.8314 577.9495,-143.8314 578.2959,-138.8434 582.4386,-144.1432 578.6423,-133.8554 578.6423,-133.8554"/>
<polygon fill="#514166" stroke="#514166" points="579.7162,-118.3892 584.8982,-108.7251 580.0626,-113.4013 580.409,-108.4133 580.409,-108.4133 580.409,-108.4133 580.0626,-113.4013 575.9199,-108.1015 579.7162,-118.3892 579.7162,-118.3892"/>
</g>
<!-- Request&#45;&gt;ItemsRequest -->
<g id="edge4" class="edge">
<title>Request&#45;&gt;ItemsRequest</title>
<path fill="none" stroke="#1d13cf" d="M598.9725,-139.5036C606.4273,-130.4764 613.8198,-119.4906 617.6877,-108 624.43,-87.9704 621.5956,-64.126 617.3905,-46.0139"/>
<ellipse fill="none" stroke="#1d13cf" cx="596.2055" cy="-142.6896" rx="4" ry="4"/>
<polygon fill="#1d13cf" stroke="#1d13cf" points="617.326,-45.7648 619.1744,-34.9558 616.0721,-40.9245 614.8182,-36.0843 614.8182,-36.0843 614.8182,-36.0843 616.0721,-40.9245 610.462,-37.2128 617.326,-45.7648 617.326,-45.7648"/>
</g>
<!-- Request&#45;&gt;Message -->
<g id="edge5" class="edge">
<title>Request&#45;&gt;Message</title>
<path fill="none" stroke="#e8f997" d="M552.4908,-140.4916C542.7224,-131.8086 531.435,-121.7754 521.5084,-112.9517"/>
<ellipse fill="none" stroke="#e8f997" cx="555.7216" cy="-143.3634" rx="4" ry="4"/>
<polygon fill="#e8f997" stroke="#e8f997" points="521.3682,-112.8271 516.8838,-102.8201 517.6312,-109.5053 513.8941,-106.1834 513.8941,-106.1834 513.8941,-106.1834 517.6312,-109.5053 510.9045,-109.5468 521.3682,-112.8271 521.3682,-112.8271"/>
</g>
<!-- User&#45;&gt;Message -->
<g id="edge8" class="edge">
<title>User&#45;&gt;Message</title>
<path fill="none" stroke="#ac6200" d="M530.1183,-208.0476C522.6945,-182.5946 511.4126,-143.9136 503.8056,-117.8325"/>
<ellipse fill="none" stroke="#ac6200" cx="531.3333" cy="-212.2135" rx="4" ry="4"/>
<polygon fill="#ac6200" stroke="#ac6200" points="503.7882,-117.7727 505.3081,-106.9127 502.3882,-112.9727 500.9881,-108.1727 500.9881,-108.1727 500.9881,-108.1727 502.3882,-112.9727 496.6681,-109.4327 503.7882,-117.7727 503.7882,-117.7727"/>
</g>
<!-- User&#45;&gt;Request -->
<g id="edge7" class="edge">
<title>User&#45;&gt;Request</title>
<path fill="none" stroke="#ad8c78" d="M550.836,-209.7263C554.4995,-202.9629 558.4988,-195.5797 562.233,-188.6857"/>
<ellipse fill="none" stroke="#ad8c78" cx="548.8354" cy="-213.4198" rx="4" ry="4"/>
<polygon fill="#ad8c78" stroke="#ad8c78" points="562.3415,-188.4854 571.0612,-181.8357 564.7229,-184.0889 567.1044,-179.6924 567.1044,-179.6924 567.1044,-179.6924 564.7229,-184.0889 563.1475,-177.5491 562.3415,-188.4854 562.3415,-188.4854"/>
</g>
</g>
</svg>
